/* XPM */
static char * dbjmin_xpm[] = {
"48 48 177 2",
"  	c None",
". 	c #797979",
"+ 	c #B7B7B7",
"@ 	c #D8D8D8",
"# 	c #DEDEDE",
"$ 	c #D7D7D7",
"% 	c #B5B5B5",
"& 	c #747474",
"* 	c #B2B2B2",
"= 	c #FFFFFF",
"- 	c #FEFEFE",
"; 	c #AAAAAA",
"> 	c #9E9E9E",
", 	c #878787",
"' 	c #303030",
") 	c #848484",
"! 	c #737373",
"~ 	c #262626",
"{ 	c #8C8C8C",
"] 	c #959595",
"^ 	c #F9F9F9",
"/ 	c #6B6B6B",
"( 	c #000000",
"_ 	c #676767",
": 	c #5A5A5A",
"< 	c #787878",
"[ 	c #F4F4F4",
"} 	c #8E8E8E",
"| 	c #ACACAC",
"1 	c #C2C2C2",
"2 	c #FDFDFD",
"3 	c #FAFAFA",
"4 	c #B6B6B6",
"5 	c #C4C4C4",
"6 	c #F5F5F5",
"7 	c #7A7A7A",
"8 	c #181818",
"9 	c #545454",
"0 	c #E2E2E2",
"a 	c #D6D6D6",
"b 	c #444444",
"c 	c #101010",
"d 	c #1F1F1F",
"e 	c #777777",
"f 	c #B8B8B8",
"g 	c #FBFBFB",
"h 	c #464646",
"i 	c #252525",
"j 	c #5D5D5D",
"k 	c #616161",
"l 	c #191919",
"m 	c #4C4C4C",
"n 	c #FCFCFC",
"o 	c #A2A2A2",
"p 	c #020202",
"q 	c #060606",
"r 	c #040404",
"s 	c #080808",
"t 	c #010101",
"u 	c #404040",
"v 	c #1C1C1C",
"w 	c #D5D5D5",
"x 	c #606060",
"y 	c #4B4B4B",
"z 	c #F8F8F8",
"A 	c #0B0B0B",
"B 	c #9A9A9A",
"C 	c #F3F3F3",
"D 	c #0E0E0E",
"E 	c #909090",
"F 	c #141414",
"G 	c #E0E0E0",
"H 	c #DFDFDF",
"I 	c #484848",
"J 	c #565656",
"K 	c #D4D4D4",
"L 	c #ECECEC",
"M 	c #D0D0D0",
"N 	c #656565",
"O 	c #727272",
"P 	c #F0F0F0",
"Q 	c #DDDDDD",
"R 	c #CFCFCF",
"S 	c #F1F1F1",
"T 	c #AFAFAF",
"U 	c #E7E7E7",
"V 	c #4F4F4F",
"W 	c #5B5B5B",
"X 	c #EBEBEB",
"Y 	c #949494",
"Z 	c #CCCCCC",
"` 	c #E3E3E3",
" .	c #D2D2D2",
"..	c #BBBBBB",
"+.	c #F6F6F6",
"@.	c #161616",
"#.	c #1D1D1D",
"$.	c #999999",
"%.	c #121212",
"&.	c #BABABA",
"*.	c #393939",
"=.	c #2F2F2F",
"-.	c #858585",
";.	c #898989",
">.	c #222222",
",.	c #CDCDCD",
"'.	c #B9B9B9",
").	c #111111",
"!.	c #242424",
"~.	c #0A0A0A",
"{.	c #A6A6A6",
"].	c #EFEFEF",
"^.	c #CACACA",
"/.	c #F2F2F2",
"(.	c #F7F7F7",
"_.	c #323232",
":.	c #171717",
"<.	c #575757",
"[.	c #5F5F5F",
"}.	c #424242",
"|.	c #C3C3C3",
"1.	c #555555",
"2.	c #090909",
"3.	c #373737",
"4.	c #474747",
"5.	c #929292",
"6.	c #8F8F8F",
"7.	c #515151",
"8.	c #A3A3A3",
"9.	c #CECECE",
"0.	c #3A3A3A",
"a.	c #131313",
"b.	c #666666",
"c.	c #B3B3B3",
"d.	c #DBDBDB",
"e.	c #ABABAB",
"f.	c #B1B1B1",
"g.	c #BFBFBF",
"h.	c #EEEEEE",
"i.	c #919191",
"j.	c #AEAEAE",
"k.	c #DADADA",
"l.	c #A7A7A7",
"m.	c #D3D3D3",
"n.	c #1E1E1E",
"o.	c #292929",
"p.	c #3E3E3E",
"q.	c #070707",
"r.	c #0D0D0D",
"s.	c #0C0C0C",
"t.	c #030303",
"u.	c #494949",
"v.	c #0F0F0F",
"w.	c #232323",
"x.	c #2E2E2E",
"y.	c #3C3C3C",
"z.	c #353535",
"A.	c #8D8D8D",
"B.	c #8A8A8A",
"C.	c #A9A9A9",
"D.	c #454545",
"E.	c #EDEDED",
"F.	c #9D9D9D",
"G.	c #939393",
"H.	c #7F7F7F",
"I.	c #868686",
"J.	c #5C5C5C",
"K.	c #C6C6C6",
"L.	c #7D7D7D",
"M.	c #626262",
"N.	c #D9D9D9",
"O.	c #C7C7C7",
"P.	c #585858",
"Q.	c #2D2D2D",
"R.	c #363636",
"S.	c #3D3D3D",
"T.	c #272727",
"                                                                                                ",
"                                                                                                ",
"        . + @ # # # # # # # # # # # # # # # # # # # # # # # # # # # # # # # # # # $ % &         ",
"      * = = = = = = = = = = = = = = = = = = = = = = = = = = = = = = = = = = = = = = = - ;       ",
"    > = = = = = = = = = = = = = = = = = , ' ' ) ! ~ ~ { = = = = = = = = = = = = = = = = = ]     ",
"    ^ = = = = = = = = = = = = = = = = = / ( ( _ : ( ( < = = = = = = = = = = = = = = = = = [     ",
"  ] = = = = = = = = = = = = = = = = = = / ( ( _ : ( ( < = = = = = = = = = = = = = = = = = = }   ",
"  * = = = = = = = = = = = = = = = = = = / ( ( _ : ( ( < = = = = = = = = = = = = = = = = = = |   ",
"  1 = = = = = = = = = = = = = = - 2 = = / ( ( _ : ( ( < = = 3 2 = = = = = = = = = = = = = = 4   ",
"  5 = = = = = = = = = = = = 6 7 ~ 8 9 0 / ( ( _ : ( ( < a b c d e 6 = = = = = = = = = = = = f   ",
"  5 = = = = = = = = = = = g h ( ( ( ( i j ( ( _ : ( ( k l ( ( ( ( m n = = = = = = = = = = = f   ",
"  5 = = = = = = = = = = = o ( ( ( ( p ( q ( ( _ : ( ( r ( s t ( ( ( | = = = = = = = = = = = f   ",
"  5 = = = = = = = = = = = u ( ( v w 6 x ( ( ( _ : ( ( ( & g $ l ( ( y = = = = = = = = = = = f   ",
"  5 = = = = = = = = = = z A ( ( B = = C D ( ( _ : ( ( 8 ^ = = E ( ( F g = = = = = = = = = = f   ",
"  5 = = = = = = = = = = G ( ( ( H = = = I ( ( _ : ( ( J = = = K ( ( ( L = = = = = = = = = = f   ",
"  5 = = = = = = = = = = M ( ( ( n = = = N ( ( _ : ( ( O = = = P ( ( ( Q = = = = = = = = = = f   ",
"  5 = = = = = = - g = = R ( ( t 2 = = = _ ( ( _ : ( ( ! = = = S ( ( ( Q = = ^ = = = = = = = f   ",
"  5 = = = = = = T 4 = = # ( ( ( U = = = V ( ( _ : ( ( W = = = @ ( ( ( X = = Y Z = = = = = = f   ",
"  5 = = = = = `  ...= = +.s ( ( ; = = 3 @.( ( _ : ( ( #.n = = $.( ( %.g = = &.4 - = = = = = f   ",
"  5 = = = = = &.= &.= = = *.( ( =.P = -.( ( ( _ : ( ( ( ;.= U >.( ( I = = = ..X ,.= = = = = f   ",
"  5 = = = = = ..= '.= = = Y ( ( ( ).!.( r ( ( _ : ( ( q ( v ~.( ( ( {.= = ].^.= &.= = = = = f   ",
"  5 = = = = = ..= 5 /.= = (._.( ( ( ( :.<.( ( _ : ( ( [.F ( ( ( ( }.g = = |.[ = ..= = = = = f   ",
"  5 = = = = = ..= ^ 4 = = = U 1.2.p 3.R Y 4.4.5.6.7.7.8.9.0.s a.b.P = = 2 c.= = ..= = = = = f   ",
"  5 = = = = = ..= = d.% f 4 4 4 T e.% 4 4 4 4 4 4 4 4 4 4 4 T * 4 4 4 + f./.= = &.= = = = = f   ",
"  5 = = = = = ..= = = = = = = = = = = = = = = = = = = = = = = = = = = = = = = = &.= = = = = f   ",
"  g.= = = h.Z i.= = = = = = = = = = = = = = = = = = = = = = = = = = = = = = = 2 { ,.].= = = %   ",
"  j.= ` <.s ( t k.= = = = = = = = = = = = = = = = = = = = = = = = = = = = = = j.( ( ~.j U = l.  ",
"  { m.8 ( ( ( ( j = = = = = = = = = = = = = = = = = = = = = = = = = = = = = C i ( ( ( ( n.d.)   ",
"    !.( ( ( ( ( t 8.= = = = = = = = = = = = = = = = = = = = = = = = = = = z V ( ( ( ( ( ( o.    ",
"    ( ( ( ( ( ( ( q , h.(.(.(.(.(.(.(.(.(.(.(.(.(.(.(.(.(.(.(.(.(.(.(.+.9.p.( ( ( ( ( ( ( (     ",
"  ( ( ( ( ( ( ( ( ( ( q.r.r.r.r.r.r.r.r.r.r.r.r.r.r.r.r.r.r.r.r.r.r.r.s.t ( ( ( ( ( ( ( ( ( (   ",
"  ( ( ( ( ( ( ( ( ( ( ( _.h t.8 u.4.r ( ( ( s.u.u.v.v.u.w.( 3.u.).( ( r u.x.( ( ( ( ( ( ( ( (   ",
"  ( ( ( ( ( ( ( ( ( ( ( j.+.s.9 = = y.( ( ( W = = z.z.= 7 ( 1 = A.( ( D = o ( ( ( ( ( ( ( ( (   ",
"  ( ( ( ( ( ( ( ( ( ( ( j.+.s.9 = = B.( ( ( C.= = z.z.= 7 ( 1 = C 8 ( D = o ( ( ( ( ( ( ( ( (   ",
"  ( ( ( ( ( ( ( ( ( ( ( j.+.s.9 = ].$ p ( 2.h.].= z.z.= 7 ( 1 ^ 3 ;.( D = o ( ( ( ( ( ( ( ( (   ",
"  ( ( ( ( ( ( ( ( ( ( ( j.+.s.9 = {.- o.( D.= l.= z.z.= 7 ( 1 E.F.S @.D = o ( ( ( ( ( ( ( ( (   ",
"  ( ( ( ( ( ( ( ( ( ( ( j.+.s.9 = _ S e ( G.k.H.= z.z.= 7 ( 1 E.w.^ I.D = o ( ( ( ( ( ( ( ( (   ",
"  ( ( ( ( ( ( ( ( ( ( ( j.+.s.9 = J.T K.t.# 6.L.= z.z.= 7 ( 1 E.( F.P >.= o ( ( ( ( ( ( ( ( (   ",
"  ( ( ( ( ( ( ( ( ( ( ( j.+.s.9 = J.M.2 4.= }.L.= z.z.= 7 ( 1 E.( i ^ i.= o ( ( ( ( ( ( ( ( (   ",
"  ( ( ( ( ( ( ( t p.' ( + [ 2.9 = J.l g N.E.s L.= z.z.= 7 ( 1 E.( ( > +.= o ( ( ( ( ( ( ( ( (   ",
"  ( ( ( ( ( ( ( t a C , +.K ( 9 = J.( O.= l.( L.= z.z.= 7 ( 1 E.( ( !.^ = o ( ( ( ( ( ( ( ( (   ",
"  ( ( ( ( ( ( ( ( P.3 = n J.( 9 = J.( 7 = : ( L.= z.z.= 7 ( 1 E.( ( ( > = o ( ( ( ( ( ( ( ( (   ",
"  ( ( ( ( ( ( ( ( ( Q.N R.( ( F S.@.( %.S.~.( n.S.r.r.S.#.( =.*.( ( ( a.S.T.( ( ( ( ( ( ( ( (   ",
"    ( ( ( ( ( ( ( ( ( ( ( ( ( ( ( ( ( ( ( ( ( ( ( ( ( ( ( ( ( ( ( ( ( ( ( ( ( ( ( ( ( ( ( (     ",
"      ( ( ( ( ( ( ( ( ( ( ( ( ( ( ( ( ( ( ( ( ( ( ( ( ( ( ( ( ( ( ( ( ( ( ( ( ( ( ( ( ( (       ",
"        ( ( ( ( ( ( ( ( ( ( ( ( ( ( ( ( ( ( ( ( ( ( ( ( ( ( ( ( ( ( ( ( ( ( ( ( ( ( ( (         ",
"            ( ( ( ( ( ( ( ( ( ( ( ( ( ( ( ( ( ( ( ( ( ( ( ( ( ( ( ( ( ( ( ( ( ( ( (             ",
"                                                                                                "};
